<mxfile host="65bd71144e">
    <diagram id="2kICdqhfZtAJEf8zcuIv" name="Page-1">
        <mxGraphModel dx="1395" dy="989" grid="1" gridSize="10" guides="1" tooltips="1" connect="1" arrows="1" fold="1" page="0" pageScale="1" pageWidth="1100" pageHeight="850" math="0" shadow="0">
            <root>
                <mxCell id="0"/>
                <mxCell id="1" parent="0"/>
                <mxCell id="kf2GpTxmKDNWu5mDLgxM-81" value="" style="rounded=1;whiteSpace=wrap;html=1;fillColor=#f5f5f5;strokeColor=#666666;fontColor=#333333;" parent="1" vertex="1">
                    <mxGeometry x="807" y="272" width="160" height="80" as="geometry"/>
                </mxCell>
                <mxCell id="62" style="edgeStyle=orthogonalEdgeStyle;html=1;entryX=0.5;entryY=0;entryDx=0;entryDy=0;fontSize=12;flowAnimation=1;" parent="1" source="2" target="61" edge="1">
                    <mxGeometry relative="1" as="geometry"/>
                </mxCell>
                <mxCell id="2" value="PDF Parser" style="rounded=1;whiteSpace=wrap;html=1;fillColor=#f5f5f5;strokeColor=#666666;fontColor=#333333;" parent="1" vertex="1">
                    <mxGeometry x="120" y="220" width="120" height="40" as="geometry"/>
                </mxCell>
                <mxCell id="40" style="edgeStyle=orthogonalEdgeStyle;html=1;fontSize=50;flowAnimation=1;entryX=0;entryY=0.5;entryDx=0;entryDy=0;exitX=1.003;exitY=0.596;exitDx=0;exitDy=0;exitPerimeter=0;" parent="1" source="kf2GpTxmKDNWu5mDLgxM-81" target="51" edge="1">
                    <mxGeometry relative="1" as="geometry">
                        <mxPoint x="1140" y="320" as="targetPoint"/>
                        <mxPoint x="968" y="319" as="sourcePoint"/>
                    </mxGeometry>
                </mxCell>
                <mxCell id="8" value="Output&lt;br&gt;Formatters" style="rounded=1;whiteSpace=wrap;html=1;fillColor=#f5f5f5;strokeColor=#666666;fontColor=#333333;" parent="1" vertex="1">
                    <mxGeometry x="800" y="280" width="160" height="80" as="geometry"/>
                </mxCell>
                <mxCell id="11" value="&lt;svg stroke=&quot;currentColor&quot; fill=&quot;currentColor&quot; stroke-width=&quot;0&quot; viewBox=&quot;0 0 24 24&quot; height=&quot;1em&quot; width=&quot;1em&quot; xmlns=&quot;http://www.w3.org/2000/svg&quot; style=&quot;font-size: 50px;&quot;&gt;&lt;g id=&quot;User&quot; style=&quot;font-size: 50px;&quot;&gt;&lt;g style=&quot;font-size: 50px;&quot;&gt;&lt;path d=&quot;M17.438,21.937H6.562a2.5,2.5,0,0,1-2.5-2.5V18.61c0-3.969,3.561-7.2,7.938-7.2s7.938,3.229,7.938,7.2v.827A2.5,2.5,0,0,1,17.438,21.937ZM12,12.412c-3.826,0-6.938,2.78-6.938,6.2v.827a1.5,1.5,0,0,0,1.5,1.5H17.438a1.5,1.5,0,0,0,1.5-1.5V18.61C18.938,15.192,15.826,12.412,12,12.412Z&quot; style=&quot;font-size: 50px;&quot;&gt;&lt;/path&gt;&lt;path d=&quot;M12,9.911a3.924,3.924,0,1,1,3.923-3.924A3.927,3.927,0,0,1,12,9.911Zm0-6.847a2.924,2.924,0,1,0,2.923,2.923A2.926,2.926,0,0,0,12,3.064Z&quot; style=&quot;font-size: 50px;&quot;&gt;&lt;/path&gt;&lt;/g&gt;&lt;/g&gt;&lt;/svg&gt;" style="text;whiteSpace=wrap;html=1;fontSize=50;fillColor=none;" parent="1" vertex="1">
                    <mxGeometry x="1240" y="290" width="54" height="60" as="geometry"/>
                </mxCell>
                <mxCell id="13" value="User" style="text;html=1;strokeColor=none;fillColor=none;align=center;verticalAlign=middle;whiteSpace=wrap;rounded=0;fontSize=12;" parent="1" vertex="1">
                    <mxGeometry x="1241" y="340" width="52" height="20" as="geometry"/>
                </mxCell>
                <mxCell id="58" style="edgeStyle=orthogonalEdgeStyle;html=1;entryX=0;entryY=0.5;entryDx=0;entryDy=0;fontSize=12;flowAnimation=1;" parent="1" source="25" target="2" edge="1">
                    <mxGeometry relative="1" as="geometry"/>
                </mxCell>
                <mxCell id="25" value="&lt;svg stroke=&quot;currentColor&quot; fill=&quot;currentColor&quot; stroke-width=&quot;0&quot; viewBox=&quot;0 0 256 256&quot; height=&quot;1em&quot; width=&quot;1em&quot; xmlns=&quot;http://www.w3.org/2000/svg&quot; style=&quot;font-size: 40px;&quot;&gt;&lt;path d=&quot;M208,88H152V32Z&quot; opacity=&quot;0.2&quot; style=&quot;font-size: 40px;&quot;&gt;&lt;/path&gt;&lt;path d=&quot;M224,152a8,8,0,0,1-8,8H192v16h16a8,8,0,0,1,0,16H192v16a8,8,0,0,1-16,0V152a8,8,0,0,1,8-8h32A8,8,0,0,1,224,152ZM92,172a28,28,0,0,1-28,28H56v8a8,8,0,0,1-16,0V152a8,8,0,0,1,8-8H64A28,28,0,0,1,92,172Zm-16,0a12,12,0,0,0-12-12H56v24h8A12,12,0,0,0,76,172Zm88,8a36,36,0,0,1-36,36H112a8,8,0,0,1-8-8V152a8,8,0,0,1,8-8h16A36,36,0,0,1,164,180Zm-16,0a20,20,0,0,0-20-20h-8v40h8A20,20,0,0,0,148,180ZM40,112V40A16,16,0,0,1,56,24h96a8,8,0,0,1,5.66,2.34l56,56A8,8,0,0,1,216,88v24a8,8,0,0,1-16,0V96H152a8,8,0,0,1-8-8V40H56v72a8,8,0,0,1-16,0ZM160,80h28.69L160,51.31Z&quot; style=&quot;font-size: 40px;&quot;&gt;&lt;/path&gt;&lt;/svg&gt;" style="text;whiteSpace=wrap;html=1;fontSize=40;fillColor=none;" parent="1" vertex="1">
                    <mxGeometry y="215" width="40" height="50" as="geometry"/>
                </mxCell>
                <mxCell id="59" style="edgeStyle=orthogonalEdgeStyle;html=1;entryX=0;entryY=0.5;entryDx=0;entryDy=0;fontSize=12;flowAnimation=1;" parent="1" source="28" target="57" edge="1">
                    <mxGeometry relative="1" as="geometry"/>
                </mxCell>
                <mxCell id="28" value="&lt;svg stroke=&quot;currentColor&quot; fill=&quot;currentColor&quot; stroke-width=&quot;0&quot; viewBox=&quot;0 0 256 256&quot; height=&quot;1em&quot; width=&quot;1em&quot; xmlns=&quot;http://www.w3.org/2000/svg&quot; style=&quot;font-size: 40px;&quot;&gt;&lt;path d=&quot;M208,88H152V32Z&quot; opacity=&quot;0.2&quot; style=&quot;font-size: 40px;&quot;&gt;&lt;/path&gt;&lt;path d=&quot;M52,144H36a8,8,0,0,0-8,8v56a8,8,0,0,0,8,8H52a36,36,0,0,0,0-72Zm0,56H44V160h8a20,20,0,0,1,0,40Zm169.53-4.91a8,8,0,0,1,.25,11.31A30.06,30.06,0,0,1,200,216c-17.65,0-32-16.15-32-36s14.35-36,32-36a30.06,30.06,0,0,1,21.78,9.6,8,8,0,0,1-11.56,11.06A14.24,14.24,0,0,0,200,160c-8.82,0-16,9-16,20s7.18,20,16,20a14.18,14.18,0,0,0,10.22-4.66A8,8,0,0,1,221.53,195.09ZM128,144c-17.64,0-32,16.15-32,36s14.36,36,32,36,32-16.15,32-36S145.64,144,128,144Zm0,56c-8.82,0-16-9-16-20s7.18-20,16-20,16,9,16,20S136.82,200,128,200ZM48,120a8,8,0,0,0,8-8V40h88V88a8,8,0,0,0,8,8h48v16a8,8,0,0,0,16,0V88a8,8,0,0,0-2.34-5.66l-56-56A8,8,0,0,0,152,24H56A16,16,0,0,0,40,40v72A8,8,0,0,0,48,120ZM160,51.31,188.69,80H160Z&quot; style=&quot;font-size: 40px;&quot;&gt;&lt;/path&gt;&lt;/svg&gt;" style="text;whiteSpace=wrap;html=1;fontSize=40;fillColor=none;" parent="1" vertex="1">
                    <mxGeometry y="294" width="40" height="50" as="geometry"/>
                </mxCell>
                <mxCell id="37" style="edgeStyle=orthogonalEdgeStyle;html=1;entryX=0;entryY=0.5;entryDx=0;entryDy=0;fontSize=50;flowAnimation=1;" parent="1" source="35" target="8" edge="1">
                    <mxGeometry relative="1" as="geometry">
                        <mxPoint x="720" y="319.9999999999999" as="targetPoint"/>
                    </mxGeometry>
                </mxCell>
                <mxCell id="68" value="Structured Data" style="edgeLabel;html=1;align=center;verticalAlign=middle;resizable=0;points=[];fontSize=12;" parent="37" vertex="1" connectable="0">
                    <mxGeometry x="-0.1545" y="-2" relative="1" as="geometry">
                        <mxPoint x="13" y="-2" as="offset"/>
                    </mxGeometry>
                </mxCell>
                <mxCell id="35" value="Information Extraction Pipeline" style="rounded=1;whiteSpace=wrap;html=1;fillColor=#dae8fc;strokeColor=#6c8ebf;" parent="1" vertex="1">
                    <mxGeometry x="480" y="280" width="160" height="80" as="geometry"/>
                </mxCell>
                <mxCell id="39" style="edgeStyle=orthogonalEdgeStyle;html=1;exitX=1;exitY=0.5;exitDx=0;exitDy=0;entryX=0;entryY=0.5;entryDx=0;entryDy=0;fontSize=50;flowAnimation=1;" parent="1" source="51" target="11" edge="1">
                    <mxGeometry relative="1" as="geometry">
                        <mxPoint x="1169" y="360" as="sourcePoint"/>
                    </mxGeometry>
                </mxCell>
                <mxCell id="51" value="Visualization&lt;br&gt;(GUI)" style="ellipse;whiteSpace=wrap;html=1;fontSize=12;fillColor=#d5e8d4;strokeColor=#82b366;" parent="1" vertex="1">
                    <mxGeometry x="1040" y="280" width="120" height="80" as="geometry"/>
                </mxCell>
                <mxCell id="63" style="edgeStyle=orthogonalEdgeStyle;html=1;entryX=0;entryY=0.5;entryDx=0;entryDy=0;fontSize=12;flowAnimation=1;" parent="1" source="57" target="61" edge="1">
                    <mxGeometry relative="1" as="geometry"/>
                </mxCell>
                <mxCell id="57" value="DOC Parser" style="rounded=1;whiteSpace=wrap;html=1;fillColor=#f5f5f5;strokeColor=#666666;fontColor=#333333;" parent="1" vertex="1">
                    <mxGeometry x="120" y="299" width="120" height="40" as="geometry"/>
                </mxCell>
                <mxCell id="65" style="edgeStyle=orthogonalEdgeStyle;html=1;entryX=0;entryY=0.5;entryDx=0;entryDy=0;fontSize=12;flowAnimation=1;" parent="1" source="61" target="35" edge="1">
                    <mxGeometry relative="1" as="geometry"/>
                </mxCell>
                <mxCell id="67" value="Raw Text" style="edgeLabel;html=1;align=center;verticalAlign=middle;resizable=0;points=[];fontSize=12;" parent="65" vertex="1" connectable="0">
                    <mxGeometry x="-0.0986" y="1" relative="1" as="geometry">
                        <mxPoint as="offset"/>
                    </mxGeometry>
                </mxCell>
                <mxCell id="61" value="" style="ellipse;whiteSpace=wrap;html=1;aspect=fixed;fontSize=12;fillColor=none;" parent="1" vertex="1">
                    <mxGeometry x="310" y="310" width="20" height="20" as="geometry"/>
                </mxCell>
                <mxCell id="81" value="Resume Information Extraction Processing Flow" style="text;html=1;strokeColor=none;fillColor=none;align=center;verticalAlign=middle;whiteSpace=wrap;rounded=0;fontSize=20;" parent="1" vertex="1">
                    <mxGeometry x="560" y="130" width="280" height="60" as="geometry"/>
                </mxCell>
                <mxCell id="kf2GpTxmKDNWu5mDLgxM-87" style="edgeStyle=orthogonalEdgeStyle;html=1;entryX=0;entryY=0.5;entryDx=0;entryDy=0;fontSize=12;flowAnimation=1;exitX=1;exitY=0.5;exitDx=0;exitDy=0;" parent="1" source="kf2GpTxmKDNWu5mDLgxM-101" target="kf2GpTxmKDNWu5mDLgxM-89" edge="1">
                    <mxGeometry relative="1" as="geometry">
                        <mxPoint x="40" y="439" as="sourcePoint"/>
                    </mxGeometry>
                </mxCell>
                <mxCell id="kf2GpTxmKDNWu5mDLgxM-102" style="edgeStyle=orthogonalEdgeStyle;rounded=1;orthogonalLoop=1;jettySize=auto;html=1;entryX=0.5;entryY=1;entryDx=0;entryDy=0;curved=0;flowAnimation=1;" parent="1" source="kf2GpTxmKDNWu5mDLgxM-89" target="61" edge="1">
                    <mxGeometry relative="1" as="geometry"/>
                </mxCell>
                <mxCell id="kf2GpTxmKDNWu5mDLgxM-89" value="Web Scrapper" style="rounded=1;whiteSpace=wrap;html=1;fillColor=#f5f5f5;strokeColor=#666666;fontColor=#333333;" parent="1" vertex="1">
                    <mxGeometry x="120" y="379" width="120" height="40" as="geometry"/>
                </mxCell>
                <UserObject label="&lt;svg xmlns=&quot;http://www.w3.org/2000/svg&quot; width=&quot;1em&quot; height=&quot;1em&quot; viewBox=&quot;0 0 512 512&quot; stroke-width=&quot;0&quot; fill=&quot;currentColor&quot; stroke=&quot;currentColor&quot;&gt;&lt;path d=&quot;M256 48h-.7c-55.4.2-107.4 21.9-146.6 61.1C69.6 148.4 48 200.5 48 256s21.6 107.6 60.8 146.9c39.1 39.2 91.2 60.9 146.6 61.1h.7c114.7 0 208-93.3 208-208S370.7 48 256 48zm180.2 194h-77.6c-.9-26.7-4.2-52.2-9.8-76.2 17.1-5.5 33.7-12.5 49.7-21 22 28.2 35 61.6 37.7 97.2zM242 242h-61.8c.8-24.5 3.8-47.7 8.8-69.1 17.4 3.9 35.1 6.3 53 7.1v62zm0 28v61.9c-17.8.8-35.6 3.2-53 7.1-5-21.4-8-44.6-8.8-69H242zm28 0h61.3c-.8 24.4-3.8 47.6-8.8 68.9-17.2-3.9-34.8-6.2-52.5-7V270zm0-28v-62c17.8-.8 35.4-3.2 52.5-7 5 21.4 8 44.5 8.8 69H270zm109.4-117.9c-12.3 6.1-25 11.3-38 15.5-7.1-21.4-16.1-39.9-26.5-54.5 24 8.3 45.9 21.6 64.5 39zM315 146.8c-14.7 3.2-29.8 5.2-45 6V79.4c17 9.2 33.6 33.9 45 67.4zM242 79v73.7c-15.4-.8-30.6-2.8-45.5-6.1 11.6-33.8 28.4-58.5 45.5-67.6zm-45.6 6.4c-10.3 14.5-19.2 32.9-26.3 54.1-12.8-4.2-25.4-9.4-37.5-15.4 18.4-17.3 40.1-30.5 63.8-38.7zm-82.9 59.5c15.8 8.4 32.3 15.4 49.2 20.8-5.7 23.9-9 49.5-9.8 76.2h-77c2.6-35.4 15.6-68.8 37.6-97zM75.8 270h77c.9 26.7 4.2 52.3 9.8 76.2-16.9 5.5-33.4 12.5-49.2 20.8-21.9-28.1-34.9-61.5-37.6-97zm56.7 117.9c12.1-6 24.7-11.2 37.6-15.4 7.1 21.3 16 39.6 26.3 54.2-23.7-8.4-45.4-21.5-63.9-38.8zm64-22.6c14.9-3.3 30.2-5.3 45.5-6.1V433c-17.2-9.1-33.9-33.9-45.5-67.7zm73.5 67.3v-73.5c15.2.8 30.3 2.8 45 6-11.4 33.6-28 58.3-45 67.5zm45-5.7c10.4-14.6 19.4-33.1 26.5-54.5 13 4.2 25.8 9.5 38 15.6-18.6 17.3-40.6 30.6-64.5 38.9zm83.5-59.8c-16-8.5-32.6-15.5-49.7-21 5.6-23.9 8.9-49.4 9.8-76.1h77.6c-2.7 35.5-15.6 68.9-37.7 97.1z&quot;&gt;&lt;/path&gt;&lt;/svg&gt;" link="&lt;svg stroke=&quot;currentColor&quot; fill=&quot;currentColor&quot; stroke-width=&quot;0&quot; viewBox=&quot;0 0 512 512&quot; height=&quot;1em&quot; width=&quot;1em&quot; xmlns=&quot;http://www.w3.org/2000/svg&quot;&gt;&lt;path d=&quot;M256 48h-.7c-55.4.2-107.4 21.9-146.6 61.1C69.6 148.4 48 200.5 48 256s21.6 107.6 60.8 146.9c39.1 39.2 91.2 60.9 146.6 61.1h.7c114.7 0 208-93.3 208-208S370.7 48 256 48zm180.2 194h-77.6c-.9-26.7-4.2-52.2-9.8-76.2 17.1-5.5 33.7-12.5 49.7-21 22 28.2 35 61.6 37.7 97.2zM242 242h-61.8c.8-24.5 3.8-47.7 8.8-69.1 17.4 3.9 35.1 6.3 53 7.1v62zm0 28v61.9c-17.8.8-35.6 3.2-53 7.1-5-21.4-8-44.6-8.8-69H242zm28 0h61.3c-.8 24.4-3.8 47.6-8.8 68.9-17.2-3.9-34.8-6.2-52.5-7V270zm0-28v-62c17.8-.8 35.4-3.2 52.5-7 5 21.4 8 44.5 8.8 69H270zm109.4-117.9c-12.3 6.1-25 11.3-38 15.5-7.1-21.4-16.1-39.9-26.5-54.5 24 8.3 45.9 21.6 64.5 39zM315 146.8c-14.7 3.2-29.8 5.2-45 6V79.4c17 9.2 33.6 33.9 45 67.4zM242 79v73.7c-15.4-.8-30.6-2.8-45.5-6.1 11.6-33.8 28.4-58.5 45.5-67.6zm-45.6 6.4c-10.3 14.5-19.2 32.9-26.3 54.1-12.8-4.2-25.4-9.4-37.5-15.4 18.4-17.3 40.1-30.5 63.8-38.7zm-82.9 59.5c15.8 8.4 32.3 15.4 49.2 20.8-5.7 23.9-9 49.5-9.8 76.2h-77c2.6-35.4 15.6-68.8 37.6-97zM75.8 270h77c.9 26.7 4.2 52.3 9.8 76.2-16.9 5.5-33.4 12.5-49.2 20.8-21.9-28.1-34.9-61.5-37.6-97zm56.7 117.9c12.1-6 24.7-11.2 37.6-15.4 7.1 21.3 16 39.6 26.3 54.2-23.7-8.4-45.4-21.5-63.9-38.8zm64-22.6c14.9-3.3 30.2-5.3 45.5-6.1V433c-17.2-9.1-33.9-33.9-45.5-67.7zm73.5 67.3v-73.5c15.2.8 30.3 2.8 45 6-11.4 33.6-28 58.3-45 67.5zm45-5.7c10.4-14.6 19.4-33.1 26.5-54.5 13 4.2 25.8 9.5 38 15.6-18.6 17.3-40.6 30.6-64.5 38.9zm83.5-59.8c-16-8.5-32.6-15.5-49.7-21 5.6-23.9 8.9-49.4 9.8-76.1h77.6c-2.7 35.5-15.6 68.9-37.7 97.1z&quot;&gt;&lt;/path&gt;&lt;/svg&gt;" id="kf2GpTxmKDNWu5mDLgxM-101">
                    <mxCell style="text;html=1;align=center;verticalAlign=middle;whiteSpace=wrap;rounded=0;fontSize=40;fillColor=none;" parent="1" vertex="1">
                        <mxGeometry y="374" width="40" height="50" as="geometry"/>
                    </mxCell>
                </UserObject>
            </root>
        </mxGraphModel>
    </diagram>
</mxfile>